<svg xmlns="http://www.w3.org/2000/svg" width="256" height="256" viewBox="0 0 100 100"><rect width="100" height="100" rx="50" fill="#f97bf9"></rect><path fill="#f70000" d="M72.68 34.89L63.47 34.89Q62.98 30.51 59.39 28.08Q55.81 25.65 50.37 25.65L50.37 25.65Q46.48 25.65 43.64 26.88Q40.79 28.10 39.23 30.21Q37.67 32.33 37.67 35.02L37.67 35.02Q37.67 37.27 38.74 38.91Q39.80 40.55 41.55 41.64Q43.30 42.74 45.30 43.47Q47.31 44.19 49.17 44.66L49.17 44.66L55.34 46.26Q58.37 47.00 61.55 48.27Q64.74 49.54 67.46 51.61Q70.17 53.68 71.86 56.74Q73.54 59.79 73.54 64.06L73.54 64.06Q73.54 69.43 70.78 73.60Q68.01 77.77 62.78 80.18Q57.54 82.59 50.12 82.59L50.12 82.59Q43.02 82.59 37.83 80.34Q32.64 78.08 29.70 73.93Q26.77 69.77 26.46 64.06L26.46 64.06L36.04 64.06Q36.31 67.49 38.28 69.76Q40.24 72.03 43.31 73.12Q46.39 74.22 50.06 74.22L50.06 74.22Q54.11 74.22 57.28 72.94Q60.44 71.66 62.27 69.36Q64.09 67.05 64.09 63.96L64.09 63.96Q64.09 61.15 62.50 59.36Q60.91 57.57 58.20 56.40Q55.50 55.22 52.10 54.33L52.10 54.33L44.62 52.29Q37.02 50.22 32.59 46.20Q28.16 42.18 28.16 35.57L28.16 35.57Q28.16 30.10 31.12 26.03Q34.09 21.95 39.16 19.68Q44.22 17.41 50.59 17.41L50.59 17.41Q57.01 17.41 61.94 19.66Q66.87 21.92 69.71 25.86Q72.55 29.79 72.68 34.89L72.68 34.89Z"></path></svg>